<?xml version="1.0" encoding="UTF-8"?>
<svg id="Layer_1" xmlns="http://www.w3.org/2000/svg" width="230" height="230" version="1.1" viewBox="0 0 230 230">
  <!-- Generator: Adobe Illustrator 30.0.0, SVG Export Plug-In . SVG Version: 2.1.1 Build 123)  -->
  <defs>
    <style>
      .st0 {
        fill: #fff;
      }

      .st1 {
        fill: #97d9e9;
      }

      .st2 {
        fill: #0078b7;
      }
    </style>
  </defs>
  <circle class="st0" cx="115" cy="115" r="82.5"/>
  <g>
    <path class="st2" d="M176.6,141c0,2.3-1.5,3.4-3.3,3.4s-3.3-1.2-3.3-3.4v-14.1l-51.2,18.5c-2.5.9-5.1.9-7.6,0l-71.1-25.7c2.4,39.3,35.1,70.5,75,70.5s72.6-31.2,75-70.5l-13.4,4.8v16.5Z"/>
    <path class="st2" d="M118.7,83.6l71.2,25.7c-2.9-38.9-35.3-69.5-74.9-69.5s-72,30.6-74.9,69.5l71.1-25.7c2.5-.9,5.1-.9,7.6,0Z"/>
    <path class="st2" d="M180.6,113.1l-57-20.5c-1.4-.5-2.6,1.1-1.7,2.4l14.2,18.7c.2.3.3.6.3.9h45.2c0-.6-.3-1.2-1-1.5Z"/>
    <path class="st1" d="M136.5,114.5c0,.3-.1.6-.3.9l-14.2,18.7c-.9,1.2.3,2.9,1.7,2.4l57-20.5c.7-.2,1-.8,1-1.4h-45.2Z"/>
  </g>
</svg>