<?xml version="1.0" encoding="UTF-8"?>
<svg id="Layer_1" xmlns="http://www.w3.org/2000/svg" width="500" height="230" version="1.1" viewBox="0 0 500 230">
  <!-- Generator: Adobe Illustrator 30.0.0, SVG Export Plug-In . SVG Version: 2.1.1 Build 123)  -->
  <defs>
    <style>
      .st0 {
        fill: none;
      }

      .st1 {
        fill: #fff;
      }
    </style>
  </defs>
  <path class="st0" d="M304.9,107.9c-1.4-.7-3.1-1-5.1-1h-3.3c-.2,0-.3,0-.4.1,0,0-.1.2-.1.4v15.8c0,.2,0,.3.1.4,0,0,.2.1.4.1h3.2c2,0,3.8-.3,5.2-1,1.4-.7,2.5-1.7,3.3-2.9.7-1.3,1.1-2.8,1.1-4.5s-.4-3.1-1.1-4.4c-.7-1.2-1.8-2.2-3.2-2.9Z"/>
  <path class="st0" d="M297.9,80.1c1.3.7,2.7,1.1,4.3,1.1s3-.4,4.3-1.1c1.3-.7,2.3-1.8,3.1-3.1.8-1.3,1.1-2.9,1.1-4.5s-.4-3.3-1.1-4.6c-.7-1.4-1.8-2.4-3.1-3.1-1.3-.7-2.7-1.1-4.3-1.1s-3,.4-4.3,1.1c-1.3.7-2.3,1.8-3,3.1-.7,1.3-1.1,2.9-1.1,4.6s.4,3.2,1.1,4.5c.7,1.3,1.7,2.4,3,3.1Z"/>
  <path class="st1" d="M267.7,84.4c2.1,1.2,4.5,1.8,7.1,1.8s3.6-.3,5.3-.9c1.7-.6,3.2-1.5,4.6-2.6.2-.2.3-.3.4-.4,0-.1.1-.3.1-.4s0-.3-.2-.6l-1.7-2.4c-.2-.3-.4-.4-.6-.4s-.4.1-.7.3c-2.1,1.6-4.4,2.5-7,2.5s-3.1-.4-4.4-1.1c-1.3-.8-2.3-1.8-3.1-3.1-.7-1.3-1.1-2.8-1.1-4.5s.4-3.3,1.1-4.6c.7-1.3,1.8-2.4,3.1-3.1,1.3-.7,2.8-1.1,4.4-1.1s2.5.2,3.7.6c1.2.4,2.3,1,3.3,1.8.3.2.5.3.7.3s.5-.2.7-.5l1.7-2.4c.2-.3.3-.5.3-.6s0-.2-.1-.3c0-.1-.2-.2-.3-.4-1.3-1.1-2.8-2-4.5-2.6-1.6-.6-3.4-1-5.3-1-2.7,0-5.1.6-7.2,1.8-2.1,1.2-3.8,2.9-5.1,5-1.2,2.1-1.8,4.5-1.8,7.1s.6,4.9,1.8,7c1.2,2.1,2.9,3.7,5,4.9Z"/>
  <path class="st1" d="M295.1,84.5c2.1,1.2,4.5,1.8,7.1,1.8s5.1-.6,7.2-1.8c2.1-1.2,3.8-2.8,5-4.9,1.2-2.1,1.8-4.5,1.8-7.1s-.6-5-1.8-7.1c-1.2-2.1-2.9-3.7-5-4.9-2.1-1.2-4.5-1.8-7.2-1.8s-5.1.6-7.2,1.8c-2.1,1.2-3.8,2.8-5,5-1.2,2.1-1.8,4.5-1.8,7.1s.6,5,1.8,7c1.2,2.1,2.9,3.7,5,4.9ZM294.9,67.9c.7-1.3,1.8-2.4,3-3.1,1.3-.7,2.7-1.1,4.3-1.1s3,.4,4.3,1.1c1.3.7,2.3,1.8,3.1,3.1.7,1.4,1.1,2.9,1.1,4.6s-.4,3.2-1.1,4.5c-.8,1.3-1.8,2.4-3.1,3.1-1.3.7-2.7,1.1-4.3,1.1s-3-.4-4.3-1.1c-1.3-.7-2.3-1.8-3-3.1-.7-1.3-1.1-2.8-1.1-4.5s.4-3.3,1.1-4.6Z"/>
  <path class="st1" d="M323,85.7h15.4c.3,0,.6,0,.7-.2.1-.1.2-.4.2-.7v-3.1c0-.3,0-.6-.2-.7-.1-.1-.4-.2-.7-.2h-10.5c-.2,0-.3,0-.4-.1s-.1-.2-.1-.4v-20.3c0-.3,0-.6-.2-.7-.2-.1-.4-.2-.7-.2h-3.5c-.3,0-.6,0-.7.2-.1.1-.2.4-.2.7v24.8c0,.3,0,.6.2.7.1.1.4.2.7.2Z"/>
  <path class="st1" d="M345.6,85.7h15.4c.3,0,.6,0,.7-.2s.2-.4.2-.7v-3.1c0-.3,0-.6-.2-.7-.1-.1-.4-.2-.7-.2h-10.5c-.2,0-.3,0-.4-.1,0,0-.1-.2-.1-.4v-20.3c0-.3,0-.6-.2-.7-.2-.1-.4-.2-.7-.2h-3.5c-.3,0-.6,0-.7.2-.1.1-.2.4-.2.7v24.8c0,.3,0,.6.2.7.1.1.4.2.7.2Z"/>
  <path class="st1" d="M384.4,81.7c0-.3,0-.6-.2-.7-.2-.1-.4-.2-.7-.2h-10.4c-.2,0-.3,0-.4-.1,0,0-.1-.2-.1-.4v-5c0-.2,0-.3.1-.4,0,0,.2,0,.4,0h9.1c.3,0,.6,0,.7-.2.2-.1.2-.4.2-.7v-3.1c0-.3,0-.6-.2-.7-.2-.2-.4-.2-.7-.2h-9.1c-.2,0-.3,0-.4-.1,0,0-.1-.2-.1-.4v-4.8c0-.2,0-.3.1-.4,0,0,.2-.1.4-.1h10.3c.3,0,.6,0,.7-.2.2-.1.2-.4.2-.7v-3.1c0-.3,0-.6-.2-.7-.2-.1-.4-.2-.7-.2h-15.3c-.3,0-.6,0-.7.2s-.2.4-.2.7v24.8c0,.3,0,.6.2.7.1.1.4.2.7.2h15.3c.3,0,.6,0,.7-.2.2-.1.2-.4.2-.7v-3.1Z"/>
  <path class="st1" d="M413,83.7c.3-.2.5-.3.6-.5.1-.2.2-.5.2-.8v-8.7c0-.3,0-.6-.2-.7-.1-.1-.4-.2-.7-.2h-3.5c-.3,0-.6,0-.7.2-.1.1-.2.4-.2.7v6c0,.2,0,.4,0,.5,0,.1-.2.2-.4.3-1.4.6-3,.8-4.9.8s-3-.4-4.3-1.1c-1.3-.7-2.3-1.8-3.1-3.1-.7-1.3-1.1-2.9-1.1-4.6s.4-3.3,1.1-4.6c.7-1.3,1.7-2.4,3.1-3.2,1.3-.8,2.8-1.1,4.6-1.1,2.5,0,4.8.7,7.1,2.1.3.2.5.2.7.2.3,0,.5-.2.7-.5l1.5-2.3c.2-.3.3-.5.3-.7s-.2-.5-.6-.8c-1.3-.9-2.8-1.6-4.5-2.2-1.7-.6-3.4-.8-5.3-.8-2.7,0-5.1.6-7.3,1.8-2.2,1.2-3.9,2.8-5.1,4.9-1.2,2.1-1.9,4.6-1.9,7.3s.6,5,1.8,7.1c1.2,2.1,2.9,3.6,5,4.8,2.1,1.1,4.5,1.7,7,1.7s6.9-.8,10.2-2.5Z"/>
  <path class="st1" d="M437.3,85.5c.2-.1.2-.4.2-.7v-3.1c0-.3,0-.6-.2-.7-.2-.1-.4-.2-.7-.2h-10.4c-.2,0-.3,0-.4-.1,0,0-.1-.2-.1-.4v-5c0-.2,0-.3.1-.4,0,0,.2,0,.4,0h9.1c.3,0,.6,0,.7-.2.2-.1.2-.4.2-.7v-3.1c0-.3,0-.6-.2-.7-.2-.2-.4-.2-.7-.2h-9.1c-.2,0-.3,0-.4-.1,0,0-.1-.2-.1-.4v-4.8c0-.2,0-.3.1-.4,0,0,.2-.1.4-.1h10.3c.3,0,.6,0,.7-.2.2-.1.2-.4.2-.7v-3.1c0-.3,0-.6-.2-.7-.2-.1-.4-.2-.7-.2h-15.3c-.3,0-.6,0-.7.2s-.2.4-.2.7v24.8c0,.3,0,.6.2.7.1.1.4.2.7.2h15.3c.3,0,.6,0,.7-.2Z"/>
  <path class="st1" d="M286.5,128c0-.1,0-.3-.2-.6l-11.9-24.2c-.4-.8-.7-1.3-.9-1.5-.2-.3-.4-.4-.7-.4s-.5.1-.8.4c-.2.3-.5.8-.9,1.5l-11.8,24.2c-.1.3-.2.5-.2.6,0,.4.3.5.8.5h3.4c.5,0,.8,0,1-.2.2-.2.5-.5.7-1l7.6-16.2,7.7,16.2c.2.5.5.8.7,1,.2.2.6.2,1,.2h3.6c.6,0,.8-.2.8-.5Z"/>
  <path class="st1" d="M308,103.5c-2.2-1.1-4.8-1.6-7.8-1.6h-8.7c-.3,0-.6,0-.7.2s-.2.4-.2.7v24.8c0,.3,0,.6.2.7.1.1.4.2.7.2h8.1c3.1,0,5.8-.6,8.1-1.7,2.3-1.1,4-2.7,5.2-4.7,1.2-2,1.8-4.4,1.8-7.2s-.6-4.9-1.7-6.9c-1.1-2-2.8-3.5-5-4.5ZM308.1,119.6c-.7,1.3-1.8,2.2-3.3,2.9-1.4.7-3.2,1-5.2,1h-3.2c-.2,0-.3,0-.4-.1,0,0-.1-.2-.1-.4v-15.8c0-.2,0-.3.1-.4,0,0,.2-.1.4-.1h3.3c2,0,3.7.3,5.1,1,1.4.7,2.5,1.6,3.2,2.9.7,1.2,1.1,2.7,1.1,4.4s-.4,3.3-1.1,4.5Z"/>
  <path class="st1" d="M328.8,127.2c.4.7.6,1.2.9,1.5.2.3.5.4.7.4s.5-.1.8-.4c.2-.3.5-.8.9-1.5l11.8-24.2c.1-.3.2-.5.2-.6,0-.4-.3-.5-.8-.5h-3.4c-.5,0-.8,0-1,.2-.2.2-.5.5-.7.9l-7.6,16.2-7.7-16.2c-.2-.5-.5-.8-.7-.9-.2-.2-.6-.2-1-.2h-3.6c-.6,0-.8.2-.8.5s0,.3.2.6l11.9,24.2Z"/>
  <path class="st1" d="M349.1,101.9c-.3,0-.6,0-.7.2-.1.1-.2.4-.2.7v24.8c0,.3,0,.6.2.7.1.1.4.2.7.2h3.5c.3,0,.6,0,.7-.2.2-.1.2-.4.2-.7v-24.8c0-.3,0-.6-.2-.7-.2-.1-.4-.2-.7-.2h-3.5Z"/>
  <path class="st1" d="M374.8,114.5c-1.2-.7-2.8-1.2-4.8-1.7-1.3-.3-2.3-.6-3-.9-.7-.3-1.2-.6-1.6-1-.4-.4-.5-.9-.5-1.6s.4-1.6,1.1-2.1c.7-.5,1.7-.8,2.9-.8s2.2.2,3.2.6c1,.4,2,1,3.1,1.7.3.2.5.3.7.3s.4-.2.6-.5l1.6-2.5c.2-.3.3-.5.3-.7s-.1-.5-.4-.7c-2.6-2.1-5.6-3.2-9-3.2s-3.5.3-5,1c-1.5.6-2.6,1.6-3.4,2.8-.8,1.2-1.2,2.7-1.2,4.4s.3,2.8,1,3.8c.6,1,1.6,1.8,2.8,2.5,1.2.6,2.7,1.2,4.6,1.6,1.4.4,2.5.7,3.2,1,.7.3,1.3.6,1.6,1,.3.4.5.9.5,1.5,0,.9-.4,1.7-1.2,2.2-.8.5-2,.8-3.5.8s-2.4-.2-3.5-.7c-1.2-.4-2.2-1-3.2-1.8-.3-.2-.5-.3-.7-.3s-.2,0-.3.1c-.1,0-.2.2-.3.4l-1.6,2.5c-.2.3-.3.6-.3.7,0,.2.2.5.5.8,1.2,1,2.6,1.8,4.2,2.4,1.6.6,3.3.9,5.1.9s3.8-.3,5.3-1c1.5-.7,2.8-1.6,3.6-2.9.9-1.2,1.3-2.7,1.3-4.4s-.3-2.7-.9-3.7c-.6-1-1.6-1.8-2.8-2.5Z"/>
  <path class="st1" d="M388.6,101.9h-3.5c-.3,0-.6,0-.7.2s-.2.4-.2.7v24.8c0,.3,0,.6.2.7.1.1.4.2.7.2h3.5c.3,0,.6,0,.7-.2.2-.1.2-.4.2-.7v-24.8c0-.3,0-.6-.2-.7-.2-.1-.4-.2-.7-.2Z"/>
  <path class="st1" d="M418.4,101.9h-3.5c-.3,0-.6,0-.7.2s-.2.4-.2.7v15.2l-14.5-15.3c-.5-.5-.8-.8-1.1-1-.3-.2-.5-.3-.7-.3-.6,0-.8.5-.8,1.4v24.8c0,.3,0,.6.2.7.1.1.4.2.7.2h3.5c.3,0,.6,0,.7-.2.2-.1.2-.4.2-.7v-15.2l14.5,15.3c.5.5.8.8,1.1,1,.3.2.5.3.7.3s.5-.1.7-.3c.1-.2.2-.6.2-1v-24.8c0-.3,0-.6-.2-.7-.2-.1-.4-.2-.7-.2Z"/>
  <path class="st1" d="M449.8,115.7c-.1-.1-.4-.2-.7-.2h-3.5c-.3,0-.6,0-.7.2-.1.1-.2.4-.2.7v6c0,.2,0,.4,0,.5,0,.1-.2.2-.4.3-1.4.6-3,.8-4.9.8s-3-.4-4.3-1.1c-1.3-.7-2.3-1.8-3.1-3.1-.7-1.3-1.1-2.9-1.1-4.6s.4-3.3,1.1-4.6c.7-1.3,1.7-2.4,3.1-3.2,1.3-.8,2.8-1.1,4.6-1.1,2.5,0,4.8.7,7.1,2.1.3.2.5.2.7.2.3,0,.5-.2.7-.5l1.5-2.3c.2-.3.3-.5.3-.7s-.2-.5-.6-.8c-1.3-.9-2.8-1.6-4.5-2.2-1.7-.6-3.4-.8-5.3-.8-2.7,0-5.1.6-7.3,1.8-2.2,1.2-3.9,2.8-5.1,4.9-1.2,2.1-1.9,4.6-1.9,7.3s.6,5,1.8,7.1c1.2,2.1,2.9,3.6,5,4.8,2.1,1.1,4.5,1.7,7,1.7s6.9-.8,10.2-2.5c.3-.2.5-.3.6-.5.1-.2.2-.5.2-.8v-8.7c0-.3,0-.6-.2-.7Z"/>
  <path class="st1" d="M280.6,144.7h-19.8c-.3,0-.6,0-.7.2-.2.2-.2.4-.2.8v4.1c0,.3,0,.6.2.7.2.2.4.2.7.2h6c.2,0,.3,0,.4.1,0,0,.1.2.1.4v19c0,.3,0,.6.2.7.2.2.4.2.7.2h4.6c.4,0,.6,0,.8-.2.2-.2.2-.4.2-.7v-19c0-.2,0-.3.1-.4,0,0,.2-.1.4-.1h6c.4,0,.6,0,.8-.2.2-.2.2-.4.2-.7v-4.1c0-.4,0-.6-.2-.8-.2-.2-.4-.2-.8-.2Z"/>
  <path class="st1" d="M303.2,165.3h-9.8c-.2,0-.4,0-.5-.1,0,0-.1-.2-.1-.4v-3.1c0-.2,0-.3.1-.4,0,0,.2-.1.5-.1h8.5c.4,0,.6,0,.8-.2.2-.2.2-.4.2-.7v-4.1c0-.4,0-.6-.2-.8-.2-.2-.4-.2-.8-.2h-8.5c-.2,0-.4,0-.5-.1,0,0-.1-.2-.1-.5v-3c0-.2,0-.3.1-.4,0,0,.2-.1.5-.1h9.8c.4,0,.6,0,.8-.2.2-.2.2-.4.2-.8v-4.1c0-.7-.3-1-1-1h-16c-.3,0-.6,0-.7.2-.2.2-.2.4-.2.8v24.7c0,.3,0,.6.2.7.2.2.4.2.7.2h16c.7,0,1-.3,1-1v-4.1c0-.4,0-.6-.2-.8-.2-.2-.4-.2-.8-.2Z"/>
  <path class="st1" d="M323.3,146c-.4-.7-.7-1.2-.9-1.5-.2-.3-.5-.4-.8-.4s-.6.1-.8.4c-.3.3-.6.8-.9,1.5l-12.1,24.2c-.1.2-.2.5-.2.7,0,.4.3.5.8.5h4.6c.5,0,.8,0,1.1-.2.3-.2.5-.5.7-1l6.7-13.8,6.7,13.8c.2.5.5.8.7,1,.2.2.6.2,1.1.2h4.9c.6,0,.9-.2.9-.6s0-.4-.2-.6l-12.2-24.2Z"/>
  <path class="st1" d="M365.6,144.3c-.2,0-.5,0-.7.2-.2.2-.5.5-1,.9l-10.9,11.9-11-11.9c-.4-.4-.7-.7-.9-.9-.3-.2-.5-.3-.7-.3s-.5.1-.7.4c-.2.3-.2.6-.2,1.1v24.6c0,.3,0,.6.2.7.2.2.4.2.7.2h4.6c.4,0,.6,0,.8-.2.2-.2.2-.4.2-.8v-11.5l5.4,6.2c.3.4.6.6.8.8.2.2.4.2.6.2s.4,0,.6-.2c.2-.2.5-.4.8-.8l5.4-6.2v11.5c0,.7.3,1,1,1h4.6c.4,0,.6,0,.8-.2.2-.2.2-.4.2-.7v-24.6c0-1-.3-1.4-.9-1.4Z"/>
  <path class="st1" d="M212.4,145.9c0,2.7-1.8,4.1-4,4.1s-4-1.4-4-4.1v-16.8l-60.9,22c-3,1.1-6.1,1.1-9,0l-84.6-30.6c2.9,46.8,41.7,83.8,89.2,83.8s86.3-37.1,89.2-83.9l-16,5.8v19.7Z"/>
  <path class="st1" d="M143.6,77.7l84.7,30.6c-3.4-46.2-42-82.6-89.1-82.6S53.5,62,50.1,108.2l84.5-30.5c3-1.1,6.1-1.1,9,0Z"/>
  <path class="st1" d="M147.4,137.7c-1.1,1.4.4,3.4,2.1,2.8l67.8-24.4c.8-.3,1.2-1,1.2-1.7,0-.7-.4-1.4-1.2-1.7l-67.8-24.4c-1.7-.6-3.1,1.4-2,2.8l16.9,22.2c.3.3.4.7.4,1.1,0,.4-.1.8-.4,1.1l-16.9,22.2ZM166.7,116.5c.7-.9,1.8-1.4,2.9-1.4h43.3l-61.8,22.1s11.9-15.8,15.6-20.7Z"/>
</svg>