<?xml version="1.0" encoding="UTF-8"?>
<svg id="Layer_1" xmlns="http://www.w3.org/2000/svg" width="500" height="230" version="1.1" viewBox="0 0 500 230">
  <!-- Generator: Adobe Illustrator 30.0.0, SVG Export Plug-In . SVG Version: 2.1.1 Build 123)  -->
  <defs>
    <style>
      .st0 {
        fill: #1f4387;
      }

      .st1 {
        fill: #97d9e9;
      }

      .st2 {
        fill: #0078b7;
      }
    </style>
  </defs>
  <path class="st0" d="M281.9,78.8c.3-.2.5-.3.7-.3s.4.1.6.4l1.7,2.4c.2.2.2.4.2.6s0,.3-.1.4c0,.1-.2.3-.4.4-1.4,1.1-2.9,2-4.6,2.6-1.7.6-3.5.9-5.3.9s-4.9-.6-7.1-1.8c-2.1-1.2-3.8-2.8-5-4.9-1.2-2.1-1.8-4.4-1.8-7s.6-5,1.8-7.1c1.2-2.1,2.9-3.8,5.1-5,2.1-1.2,4.6-1.8,7.2-1.8s3.6.3,5.3,1c1.6.6,3.1,1.5,4.5,2.6.1.1.2.2.3.4s.1.2.1.3c0,.2,0,.4-.3.6l-1.7,2.4c-.2.3-.5.5-.7.5s-.4-.1-.7-.3c-1-.8-2.1-1.4-3.3-1.8-1.2-.4-2.4-.6-3.7-.6s-3,.4-4.4,1.1c-1.3.7-2.3,1.8-3.1,3.1-.7,1.3-1.1,2.9-1.1,4.6s.4,3.2,1.1,4.5c.7,1.3,1.8,2.4,3.1,3.1s2.8,1.1,4.4,1.1c2.6,0,4.9-.8,7-2.5Z"/>
  <path class="st0" d="M290.1,65.4c1.2-2.1,2.9-3.8,5-5,2.1-1.2,4.5-1.8,7.2-1.8s5.1.6,7.2,1.8c2.1,1.2,3.8,2.8,5,4.9,1.2,2.1,1.8,4.4,1.8,7.1s-.6,5-1.8,7.1c-1.2,2.1-2.9,3.7-5,4.9-2.1,1.2-4.6,1.8-7.2,1.8s-5-.6-7.1-1.8c-2.1-1.2-3.8-2.8-5-4.9-1.2-2.1-1.8-4.4-1.8-7s.6-5,1.8-7.1ZM294.9,77c.7,1.3,1.7,2.4,3,3.1,1.3.7,2.7,1.1,4.3,1.1s3-.4,4.3-1.1c1.3-.7,2.3-1.8,3.1-3.1.8-1.3,1.1-2.9,1.1-4.5s-.4-3.3-1.1-4.6c-.7-1.4-1.8-2.4-3.1-3.1-1.3-.7-2.7-1.1-4.3-1.1s-3,.4-4.3,1.1c-1.3.7-2.3,1.8-3,3.1-.7,1.3-1.1,2.9-1.1,4.6s.4,3.2,1.1,4.5Z"/>
  <path class="st0" d="M327.5,80.7c0,0,.2.1.4.1h10.5c.3,0,.6,0,.7.2.1.1.2.4.2.7v3.1c0,.3,0,.6-.2.7s-.4.2-.7.2h-15.4c-.3,0-.6,0-.7-.2-.1-.1-.2-.4-.2-.7v-24.8c0-.3,0-.6.2-.7s.4-.2.7-.2h3.5c.3,0,.6,0,.7.2.2.1.2.4.2.7v20.3c0,.2,0,.3.1.4Z"/>
  <path class="st0" d="M350.1,80.7c0,0,.2.1.4.1h10.5c.3,0,.6,0,.7.2.1.1.2.4.2.7v3.1c0,.3,0,.6-.2.7s-.4.2-.7.2h-15.4c-.3,0-.6,0-.7-.2-.1-.1-.2-.4-.2-.7v-24.8c0-.3,0-.6.2-.7s.4-.2.7-.2h3.5c.3,0,.6,0,.7.2.2.1.2.4.2.7v20.3c0,.2,0,.3.1.4Z"/>
  <path class="st0" d="M384.1,81c.2.1.2.4.2.7v3.1c0,.3,0,.6-.2.7-.2.1-.4.2-.7.2h-15.3c-.3,0-.6,0-.7-.2-.1-.1-.2-.4-.2-.7v-24.8c0-.3,0-.6.2-.7s.4-.2.7-.2h15.3c.3,0,.6,0,.7.2.2.1.2.4.2.7v3.1c0,.3,0,.6-.2.7-.2.1-.4.2-.7.2h-10.3c-.2,0-.3,0-.4.1,0,0-.1.2-.1.4v4.8c0,.2,0,.3.1.4s.2.1.4.1h9.1c.3,0,.6,0,.7.2s.2.4.2.7v3.1c0,.3,0,.6-.2.7-.2.1-.4.2-.7.2h-9.1c-.2,0-.3,0-.4,0,0,0-.1.2-.1.4v5c0,.2,0,.3.1.4s.2.1.4.1h10.4c.3,0,.6,0,.7.2Z"/>
  <path class="st0" d="M413.6,83.2c-.1.2-.3.4-.6.5-3.2,1.6-6.6,2.5-10.2,2.5s-4.9-.6-7-1.7c-2.1-1.1-3.8-2.7-5-4.8-1.2-2.1-1.8-4.4-1.8-7.1s.6-5.2,1.9-7.3c1.2-2.1,2.9-3.8,5.1-4.9,2.2-1.2,4.6-1.8,7.3-1.8s3.6.3,5.3.8c1.7.6,3.2,1.3,4.5,2.2.4.2.6.5.6.8s0,.4-.3.7l-1.5,2.3c-.2.3-.5.5-.7.5s-.4,0-.7-.2c-2.3-1.4-4.7-2.1-7.1-2.1s-3.2.4-4.6,1.1c-1.3.8-2.3,1.8-3.1,3.2-.7,1.3-1.1,2.9-1.1,4.6s.4,3.3,1.1,4.6c.7,1.3,1.8,2.4,3.1,3.1,1.3.7,2.7,1.1,4.3,1.1s3.6-.3,4.9-.8c.2-.1.4-.2.4-.3,0-.1,0-.3,0-.5v-6c0-.3,0-.6.2-.7.1-.1.4-.2.7-.2h3.5c.3,0,.6,0,.7.2.1.1.2.4.2.7v8.7c0,.4,0,.6-.2.8Z"/>
  <path class="st0" d="M437.3,81c.2.1.2.4.2.7v3.1c0,.3,0,.6-.2.7-.2.1-.4.2-.7.2h-15.3c-.3,0-.6,0-.7-.2-.1-.1-.2-.4-.2-.7v-24.8c0-.3,0-.6.2-.7s.4-.2.7-.2h15.3c.3,0,.6,0,.7.2.2.1.2.4.2.7v3.1c0,.3,0,.6-.2.7-.2.1-.4.2-.7.2h-10.3c-.2,0-.3,0-.4.1,0,0-.1.2-.1.4v4.8c0,.2,0,.3.1.4s.2.1.4.1h9.1c.3,0,.6,0,.7.2s.2.4.2.7v3.1c0,.3,0,.6-.2.7-.2.1-.4.2-.7.2h-9.1c-.2,0-.3,0-.4,0,0,0-.1.2-.1.4v5c0,.2,0,.3.1.4s.2.1.4.1h10.4c.3,0,.6,0,.7.2Z"/>
  <path class="st0" d="M265.1,127.4c-.2.5-.5.8-.7,1s-.6.2-1,.2h-3.4c-.6,0-.8-.2-.8-.5s0-.3.2-.6l11.8-24.2c.4-.8.6-1.3.9-1.5.2-.3.5-.4.8-.4s.5.1.7.4c.2.3.5.8.9,1.5l11.9,24.2c.1.3.2.5.2.6,0,.4-.3.5-.8.5h-3.6c-.4,0-.8,0-1-.2s-.5-.5-.7-1l-7.7-16.2-7.6,16.2Z"/>
  <path class="st0" d="M290.8,102.1c.1-.1.4-.2.7-.2h8.7c3,0,5.6.5,7.8,1.6,2.2,1.1,3.8,2.6,5,4.5,1.1,2,1.7,4.3,1.7,6.9s-.6,5.2-1.8,7.2c-1.2,2-2.9,3.6-5.2,4.7-2.3,1.1-5,1.7-8.1,1.7h-8.1c-.3,0-.6,0-.7-.2-.1-.1-.2-.4-.2-.7v-24.8c0-.3,0-.6.2-.7ZM296.1,107c0,0-.1.2-.1.4v15.8c0,.2,0,.3.1.4s.2.1.4.1h3.2c2,0,3.8-.3,5.2-1,1.4-.7,2.5-1.7,3.3-2.9.7-1.3,1.1-2.8,1.1-4.5s-.4-3.1-1.1-4.4c-.7-1.2-1.8-2.2-3.2-2.9-1.4-.7-3.1-1-5.1-1h-3.3c-.2,0-.3,0-.4.1Z"/>
  <path class="st0" d="M338.2,103.1c.2-.5.5-.8.7-.9.2-.2.6-.2,1-.2h3.4c.6,0,.8.2.8.5s0,.3-.2.6l-11.8,24.2c-.4.8-.6,1.3-.9,1.5s-.5.4-.8.4-.5-.1-.7-.4c-.2-.3-.5-.8-.9-1.5l-11.9-24.2c-.1-.3-.2-.5-.2-.6,0-.4.3-.5.8-.5h3.6c.4,0,.8,0,1,.2.2.2.5.5.7.9l7.7,16.2,7.6-16.2Z"/>
  <path class="st0" d="M353.3,128.3c-.2.1-.4.2-.7.2h-3.5c-.3,0-.6,0-.7-.2-.1-.1-.2-.4-.2-.7v-24.8c0-.3,0-.6.2-.7s.4-.2.7-.2h3.5c.3,0,.6,0,.7.2.2.1.2.4.2.7v24.8c0,.3,0,.6-.2.7Z"/>
  <path class="st0" d="M360.6,121.4c.1,0,.2-.1.3-.1.2,0,.4.1.7.3,1,.8,2,1.4,3.2,1.8,1.2.4,2.3.7,3.5.7s2.6-.3,3.5-.8c.8-.5,1.2-1.3,1.2-2.2s-.2-1.1-.5-1.5c-.3-.4-.9-.7-1.6-1-.7-.3-1.8-.6-3.2-1-1.9-.5-3.4-1-4.6-1.6-1.2-.6-2.1-1.5-2.8-2.5-.6-1-1-2.3-1-3.8s.4-3.2,1.2-4.4c.8-1.2,2-2.2,3.4-2.8,1.5-.6,3.1-1,5-1,3.4,0,6.4,1.1,9,3.2.3.2.4.4.4.7s0,.4-.3.7l-1.6,2.5c-.2.3-.4.5-.6.5s-.4-.1-.7-.3c-1-.7-2.1-1.3-3.1-1.7-1-.4-2.1-.6-3.2-.6s-2.2.3-2.9.8c-.7.5-1.1,1.2-1.1,2.1s.2,1.2.5,1.6c.4.4.9.7,1.6,1,.7.3,1.7.6,3,.9,2,.5,3.6,1.1,4.8,1.7,1.2.7,2.2,1.5,2.8,2.5.6,1,.9,2.2.9,3.7s-.4,3.2-1.3,4.4c-.9,1.2-2.1,2.2-3.6,2.9-1.5.7-3.3,1-5.3,1s-3.5-.3-5.1-.9c-1.6-.6-3-1.4-4.2-2.4-.4-.3-.5-.5-.5-.8s.1-.4.3-.7l1.6-2.5c.1-.2.2-.3.3-.4Z"/>
  <path class="st0" d="M389.4,128.3c-.2.1-.4.2-.7.2h-3.5c-.3,0-.6,0-.7-.2-.1-.1-.2-.4-.2-.7v-24.8c0-.3,0-.6.2-.7s.4-.2.7-.2h3.5c.3,0,.6,0,.7.2.2.1.2.4.2.7v24.8c0,.3,0,.6-.2.7Z"/>
  <path class="st0" d="M414.3,102.1c.1-.1.4-.2.7-.2h3.5c.3,0,.6,0,.7.2.2.1.2.4.2.7v24.8c0,.5,0,.8-.2,1-.1.2-.4.3-.7.3s-.5,0-.7-.3c-.3-.2-.6-.5-1.1-1l-14.5-15.3v15.2c0,.3,0,.6-.2.7-.2.1-.4.2-.7.2h-3.5c-.3,0-.6,0-.7-.2-.1-.1-.2-.4-.2-.7v-24.8c0-.9.3-1.4.8-1.4s.5,0,.7.3c.3.2.6.5,1.1,1l14.5,15.3v-15.2c0-.3,0-.6.2-.7Z"/>
  <path class="st0" d="M449.8,126c-.1.2-.3.4-.6.5-3.2,1.6-6.6,2.5-10.2,2.5s-4.9-.6-7-1.7c-2.1-1.1-3.8-2.7-5-4.8-1.2-2.1-1.8-4.4-1.8-7.1s.6-5.2,1.9-7.3c1.2-2.1,2.9-3.8,5.1-4.9,2.2-1.2,4.6-1.8,7.3-1.8s3.6.3,5.3.8c1.7.6,3.2,1.3,4.5,2.2.4.2.6.5.6.8s0,.4-.3.7l-1.5,2.3c-.2.3-.5.5-.7.5s-.4,0-.7-.2c-2.3-1.4-4.7-2.1-7.1-2.1s-3.2.4-4.6,1.1c-1.3.8-2.3,1.8-3.1,3.2-.7,1.3-1.1,2.9-1.1,4.6s.4,3.3,1.1,4.6c.7,1.3,1.8,2.4,3.1,3.1,1.3.7,2.7,1.1,4.3,1.1s3.6-.3,4.9-.8c.2-.1.4-.2.4-.3,0-.1,0-.3,0-.5v-6c0-.3,0-.6.2-.7s.4-.2.7-.2h3.5c.3,0,.6,0,.7.2.1.1.2.4.2.7v8.7c0,.4,0,.6-.2.8Z"/>
  <path class="st2" d="M281.4,150.6c-.2.2-.4.2-.8.2h-6c-.2,0-.3,0-.4.1s-.1.2-.1.4v19c0,.3,0,.6-.2.7-.2.2-.4.2-.8.2h-4.6c-.3,0-.6,0-.7-.2-.2-.2-.2-.4-.2-.7v-19c0-.2,0-.3-.1-.4,0,0-.2-.1-.4-.1h-6c-.3,0-.6,0-.7-.2-.2-.2-.2-.4-.2-.7v-4.1c0-.4,0-.6.2-.8.2-.2.4-.2.7-.2h19.8c.4,0,.6,0,.8.2s.2.4.2.8v4.1c0,.3,0,.6-.2.7Z"/>
  <path class="st2" d="M304,165.5c.2.2.2.4.2.8v4.1c0,.7-.3,1-1,1h-16c-.3,0-.6,0-.7-.2-.2-.2-.2-.4-.2-.7v-24.7c0-.4,0-.6.2-.8.2-.2.4-.2.7-.2h16c.7,0,1,.3,1,1v4.1c0,.4,0,.6-.2.8-.2.2-.4.2-.8.2h-9.8c-.2,0-.4,0-.5.1,0,0-.1.2-.1.4v3c0,.2,0,.4.1.5s.2.1.5.1h8.5c.4,0,.6,0,.8.2.2.2.2.4.2.8v4.1c0,.3,0,.6-.2.7-.2.2-.4.2-.8.2h-8.5c-.2,0-.4,0-.5.1,0,0-.1.2-.1.4v3.1c0,.2,0,.3.1.4,0,0,.2.1.5.1h9.8c.4,0,.6,0,.8.2Z"/>
  <path class="st2" d="M314.8,170.1c-.2.5-.5.8-.7,1-.3.2-.6.2-1.1.2h-4.6c-.6,0-.8-.2-.8-.5s0-.5.2-.7l12.1-24.2c.4-.7.7-1.2.9-1.5.3-.3.5-.4.8-.4s.6.1.8.4c.2.3.6.8.9,1.5l12.2,24.2c.1.2.2.4.2.6,0,.4-.3.6-.9.6h-4.9c-.5,0-.8,0-1.1-.2-.2-.2-.5-.5-.7-1l-6.7-13.8-6.7,13.8Z"/>
  <path class="st2" d="M346.2,170.4c0,.4,0,.6-.2.8-.2.2-.4.2-.8.2h-4.6c-.3,0-.6,0-.7-.2-.2-.2-.2-.4-.2-.7v-24.6c0-.5,0-.8.2-1.1.2-.3.4-.4.7-.4s.5,0,.7.3c.3.2.6.5.9.9l11,11.9,10.9-11.9c.4-.4.7-.7,1-.9.2-.2.5-.2.7-.2.6,0,.9.5.9,1.4v24.6c0,.3,0,.6-.2.7-.2.2-.4.2-.8.2h-4.6c-.7,0-1-.3-1-1v-11.5l-5.4,6.2c-.4.4-.6.6-.8.8-.2.2-.4.2-.6.2s-.4,0-.6-.2c-.2-.2-.5-.4-.8-.8l-5.4-6.2v11.5Z"/>
  <path class="st2" d="M212.4,145.9c0,2.7-1.8,4.1-4,4.1s-4-1.4-4-4.1v-16.8l-60.9,22c-3,1.1-6.1,1.1-9,0l-84.6-30.6c2.9,46.8,41.7,83.8,89.2,83.8s86.3-37.1,89.2-83.9l-16,5.8v19.7Z"/>
  <path class="st2" d="M143.6,77.7l84.7,30.6c-3.4-46.2-42-82.6-89.1-82.6S53.5,62,50.1,108.2l84.5-30.5c3-1.1,6.1-1.1,9,0Z"/>
  <path class="st2" d="M217.2,112.7l-67.8-24.4c-1.7-.6-3.1,1.4-2,2.8l16.9,22.2c.3.3.4.7.4,1.1h53.7c0-.7-.4-1.4-1.2-1.7Z"/>
  <path class="st1" d="M164.7,114.4c0,.4-.1.8-.4,1.1l-16.9,22.2c-1.1,1.4.4,3.4,2.1,2.8l67.8-24.4c.8-.3,1.2-1,1.2-1.7h-53.7Z"/>
</svg>