<?xml version="1.0" encoding="UTF-8"?>
<svg id="Layer_1" xmlns="http://www.w3.org/2000/svg" width="230" height="230" version="1.1" viewBox="0 0 230 230">
  <!-- Generator: Adobe Illustrator 30.0.0, SVG Export Plug-In . SVG Version: 2.1.1 Build 123)  -->
  <defs>
    <style>
      .st0 {
        fill: #97d9e9;
      }

      .st1 {
        fill: #0078b7;
      }
    </style>
  </defs>
  <path class="st1" d="M188.2,145.9c0,2.7-1.8,4.1-4,4.1s-4-1.4-4-4.1v-16.8l-60.9,22c-3,1.1-6.1,1.1-9,0l-84.6-30.6c2.9,46.8,41.7,83.8,89.2,83.8s86.3-37.1,89.2-83.9l-16,5.8v19.7Z"/>
  <path class="st1" d="M119.4,77.7l84.7,30.6c-3.4-46.2-42-82.6-89.1-82.6S29.3,62,25.9,108.2l84.5-30.5c3-1.1,6.1-1.1,9,0Z"/>
  <path class="st1" d="M193,112.7l-67.8-24.4c-1.7-.6-3.1,1.4-2,2.8l16.9,22.2c.3.3.4.7.4,1.1h53.7c0-.7-.4-1.4-1.2-1.7Z"/>
  <path class="st0" d="M140.5,114.4c0,.4-.1.8-.4,1.1l-16.9,22.2c-1.1,1.4.4,3.4,2.1,2.8l67.8-24.4c.8-.3,1.2-1,1.2-1.7h-53.7Z"/>
</svg>